<svg xmlns="http://www.w3.org/2000/svg" viewBox="0 0 163.51 71.04"><defs><style>.cls-1{fill:#fff;}</style></defs><title>pnp-powershell-white</title><g id="Layer_2" data-name="Layer 2"><g id="White_Teal_Background" data-name="White / Teal Background"><g id="PowerShell"><path class="cls-1" d="M25.14,53.6a4,4,0,0,1-.37,1.75,4,4,0,0,1-1.05,1.36,4.87,4.87,0,0,1-1.64.89,6.83,6.83,0,0,1-2.14.31H18.46V62.4H15.6V49.64h4.45a6.13,6.13,0,0,1,3.8,1A3.53,3.53,0,0,1,25.14,53.6Zm-3,.09a1.84,1.84,0,0,0-.61-1.55,3,3,0,0,0-1.86-.48H18.46v4.25h1.13a3,3,0,0,0,1.91-.55A2.06,2.06,0,0,0,22.15,53.69Z"/><path class="cls-1" d="M34.43,62.62a7.43,7.43,0,0,1-2.68-.46,6,6,0,0,1-2.07-1.33,6.08,6.08,0,0,1-1.34-2,7.09,7.09,0,0,1-.47-2.61,7.65,7.65,0,0,1,.47-2.72,6,6,0,0,1,1.35-2.14,6.08,6.08,0,0,1,2.13-1.4,7.74,7.74,0,0,1,2.85-.49,7,7,0,0,1,2.66.48,6,6,0,0,1,2,1.36,6.09,6.09,0,0,1,1.3,2,7.21,7.21,0,0,1,.46,2.58,7.7,7.7,0,0,1-.49,2.79,6.06,6.06,0,0,1-1.37,2.12,6.26,6.26,0,0,1-2.11,1.35A7.43,7.43,0,0,1,34.43,62.62Zm.13-11a3.55,3.55,0,0,0-1.55.32,3.11,3.11,0,0,0-1.16.9,4.14,4.14,0,0,0-.73,1.4A6.11,6.11,0,0,0,30.86,56a6.42,6.42,0,0,0,.24,1.82,4.24,4.24,0,0,0,.71,1.39,3.26,3.26,0,0,0,1.13.89,3.53,3.53,0,0,0,1.52.31A4.12,4.12,0,0,0,36,60.16a3.08,3.08,0,0,0,1.15-.87,3.77,3.77,0,0,0,.7-1.37,6.93,6.93,0,0,0,.23-1.85,7.19,7.19,0,0,0-.22-1.88,4,4,0,0,0-.67-1.41,2.93,2.93,0,0,0-1.12-.88A3.73,3.73,0,0,0,34.56,51.6Z"/><path class="cls-1" d="M54.51,49.64,57,57.51a10.79,10.79,0,0,1,.31,1.16c.07.33.13.62.17.87h0c0-.23.08-.52.15-.88s.19-.79.34-1.31l2-7.71h3c-.66,2.14-1.31,4.26-2,6.38s-1.3,4.24-1.94,6.38H56l-2.47-7.69c-.08-.27-.17-.59-.26-1a9.14,9.14,0,0,1-.2-1.1c-.08.39-.16.78-.25,1.17a7.26,7.26,0,0,1-.26,1c-.4,1.27-.81,2.54-1.21,3.81s-.82,2.53-1.22,3.81H47L43.23,49.64h3l2,7.76q.19.7.3,1.23a8.54,8.54,0,0,1,.16.92h0c0-.21.07-.48.14-.83s.19-.77.34-1.26l2.54-7.82Z"/><path class="cls-1" d="M74.11,62.4h-8V49.64h7.66v2.11H69V54.9h4.42V57H69V60.3h5.12Z"/><path class="cls-1" d="M88.24,62.4H84.9l-2-3.44a6.85,6.85,0,0,0-.48-.74,2.27,2.27,0,0,0-.45-.47,1.27,1.27,0,0,0-.47-.25,1.93,1.93,0,0,0-.55-.07h-.64v5H77.48V49.64h4.69a6.06,6.06,0,0,1,3.55.88A2.93,2.93,0,0,1,87,53.07a3.23,3.23,0,0,1-.85,2.25,3.84,3.84,0,0,1-1,.76,5.43,5.43,0,0,1-1.24.49v0a2.64,2.64,0,0,1,1,.64,6.48,6.48,0,0,1,.89,1.15ZM84,53.32A1.42,1.42,0,0,0,83.38,52a3.18,3.18,0,0,0-1.72-.38H80.34v3.79h1a4.12,4.12,0,0,0,1.09-.13,2.71,2.71,0,0,0,.84-.39,1.83,1.83,0,0,0,.54-.66A1.89,1.89,0,0,0,84,53.32Z"/><path class="cls-1" d="M90.56,59.34a4.65,4.65,0,0,0,.81.51,5.64,5.64,0,0,0,.92.39,8.08,8.08,0,0,0,1,.24,6.41,6.41,0,0,0,.95.08,3.16,3.16,0,0,0,1.8-.4,1.22,1.22,0,0,0,.58-1.06,1.34,1.34,0,0,0-.13-.58A1.57,1.57,0,0,0,96,58a5.11,5.11,0,0,0-.88-.52c-.38-.18-.85-.4-1.43-.65a6.47,6.47,0,0,1-2.41-1.65A3.4,3.4,0,0,1,90.51,53a3,3,0,0,1,.39-1.55A3.3,3.3,0,0,1,92,50.32a5.28,5.28,0,0,1,1.6-.67,8.28,8.28,0,0,1,2-.22,13.51,13.51,0,0,1,1.81.11,5.93,5.93,0,0,1,1.34.36v2.42a5,5,0,0,0-1.46-.62,6.55,6.55,0,0,0-1.65-.21,3.43,3.43,0,0,0-1.72.37,1.13,1.13,0,0,0-.62,1,1.19,1.19,0,0,0,.11.51,1.43,1.43,0,0,0,.39.46,5.08,5.08,0,0,0,.79.48c.34.17.78.37,1.31.6a11.58,11.58,0,0,1,1.54.78,5.1,5.1,0,0,1,1.08.88,3.22,3.22,0,0,1,.65,1.05,3.62,3.62,0,0,1,.21,1.26A3.54,3.54,0,0,1,99,60.45a3.34,3.34,0,0,1-1,1.18,4.9,4.9,0,0,1-1.63.74,8.57,8.57,0,0,1-2.19.25,8.42,8.42,0,0,1-1,0,7.86,7.86,0,0,1-1-.15c-.32-.06-.62-.14-.91-.22a4.11,4.11,0,0,1-.72-.3Z"/><path class="cls-1" d="M114.77,62.4h-2.86V56.9h-5.76v5.5h-2.86V49.64h2.86v5.08h5.76V49.64h2.86Z"/><path class="cls-1" d="M127.17,62.4h-8V49.64h7.65v2.11h-4.79V54.9h4.41V57h-4.41V60.3h5.11Z"/><path class="cls-1" d="M138.53,62.4h-8V49.64h2.86v10.6h5.13Z"/><path class="cls-1" d="M149.43,62.4h-8V49.64h2.86v10.6h5.13Z"/><path class="cls-1" d="M161.23,42.94V68.76H2.28V42.94h159m2.28-2.28H0V71H163.51V40.66Z"/><path class="cls-1" d="M53.86,14.07h-2V21h2c2.67,0,4-1.17,4-3.49S56.53,14.07,53.86,14.07Z"/><path class="cls-1" d="M15.12,14.07h-2V21h2c2.67,0,4-1.17,4-3.49S17.79,14.07,15.12,14.07Z"/><path class="cls-1" d="M0,0V42.64l70,.11V.12ZM22,22.7a9.54,9.54,0,0,1-6.44,2.06H13.15V32.4h-5V10.24H16q8.4,0,8.41,7.06A6.75,6.75,0,0,1,22,22.7Zm20.54,9.7H37.63V23.6q0-3.68-2.64-3.67a2.62,2.62,0,0,0-2.09,1,3.68,3.68,0,0,0-.82,2.47v9H27.17V16.57h4.91v2.51h.06a5.62,5.62,0,0,1,5.1-2.89q5.28,0,5.28,6.52Zm18.21-9.7a9.57,9.57,0,0,1-6.45,2.06H51.89V32.4h-5V10.24h7.85q8.42,0,8.41,7.06A6.77,6.77,0,0,1,60.73,22.7Z"/><path class="cls-1" d="M161.23,2.4V40.48H70V2.4h91.22M163.51.13H67.73V42.76h95.78V.13Z"/><path class="cls-1" d="M102.27,24.42v8H97V9.09h8.25q8.83,0,8.84,7.45a7.15,7.15,0,0,1-2.54,5.7,10.06,10.06,0,0,1-6.78,2.18Zm0-11.29v7.29h2.07q4.22,0,4.21-3.68c0-2.4-1.4-3.61-4.21-3.61Z"/><path class="cls-1" d="M119.78,31.58V26.36a10,10,0,0,0,3.09,1.78,9.75,9.75,0,0,0,3.35.6,7.39,7.39,0,0,0,1.74-.18,4.06,4.06,0,0,0,1.24-.5,2.12,2.12,0,0,0,.74-.75,1.8,1.8,0,0,0,.25-.93,2,2,0,0,0-.39-1.23,4.11,4.11,0,0,0-1.07-1,10.39,10.39,0,0,0-1.61-.88c-.62-.29-1.29-.57-2-.87A10.23,10.23,0,0,1,121,19.62a6,6,0,0,1-1.34-4,6.31,6.31,0,0,1,.73-3.14,6.09,6.09,0,0,1,2-2.16,8.75,8.75,0,0,1,2.92-1.25,14.92,14.92,0,0,1,3.53-.4,20.75,20.75,0,0,1,3.23.22,12.52,12.52,0,0,1,2.6.68v4.87a7.87,7.87,0,0,0-1.28-.72,11.4,11.4,0,0,0-1.42-.51,11,11,0,0,0-2.84-.4,7.42,7.42,0,0,0-1.63.17,4.58,4.58,0,0,0-1.24.48,2.42,2.42,0,0,0-.78.74,1.74,1.74,0,0,0-.28,1,1.83,1.83,0,0,0,.31,1.06,3.66,3.66,0,0,0,.88.88,9.13,9.13,0,0,0,1.39.81c.54.27,1.15.54,1.84.83A21.14,21.14,0,0,1,132.17,20a9.12,9.12,0,0,1,1.92,1.5,5.68,5.68,0,0,1,1.22,1.9,6.75,6.75,0,0,1,.42,2.48,6.73,6.73,0,0,1-.74,3.29,6.09,6.09,0,0,1-2,2.15,8.79,8.79,0,0,1-3,1.18,17.15,17.15,0,0,1-3.57.36,20.52,20.52,0,0,1-3.66-.32A11.32,11.32,0,0,1,119.78,31.58Z"/></g></g></g></svg>