<?xml version="1.0" encoding="UTF-8" standalone="no"?>
<svg xmlns:dc="http://purl.org/dc/elements/1.1/"
   xmlns:svg="http://www.w3.org/2000/svg"
   xmlns="http://www.w3.org/2000/svg" height="40" viewBox="0 0 163.13 70.88">
   <defs>
      <style>.cls-1{fill:#fff;}</style>
   </defs>
   <g id="PowerShell">
      <path class="cls-1" d="m25.14 53.6a4 4 0 0 1-0.37 1.75 4 4 0 0 1-1.05 1.36 4.87 4.87 0 0 1-1.64 0.89 6.83 6.83 0 0 1-2.14 0.31h-1.48v4.49h-2.86v-12.76h4.45a6.13 6.13 0 0 1 3.8 1 3.53 3.53 0 0 1 1.29 2.96zm-3 0.09a1.84 1.84 0 0 0-0.61-1.55 3 3 0 0 0-1.86-0.48h-1.21v4.25h1.13a3 3 0 0 0 1.91-0.55 2.06 2.06 0 0 0 0.65-1.67z"/>
      <path class="cls-1" d="m34.43 62.62a7.43 7.43 0 0 1-2.68-0.46 6 6 0 0 1-2.07-1.33 6.08 6.08 0 0 1-1.34-2 7.09 7.09 0 0 1-0.47-2.61 7.65 7.65 0 0 1 0.47-2.72 6 6 0 0 1 1.35-2.14 6.08 6.08 0 0 1 2.13-1.4 7.74 7.74 0 0 1 2.85-0.49 7 7 0 0 1 2.66 0.48 6 6 0 0 1 2 1.36 6.09 6.09 0 0 1 1.3 2 7.21 7.21 0 0 1 0.46 2.58 7.7 7.7 0 0 1-0.49 2.79 6.06 6.06 0 0 1-1.37 2.12 6.26 6.26 0 0 1-2.11 1.35 7.43 7.43 0 0 1-2.69 0.47zm0.13-11a3.55 3.55 0 0 0-1.55 0.32 3.11 3.11 0 0 0-1.16 0.9 4.14 4.14 0 0 0-0.73 1.4 6.11 6.11 0 0 0-0.26 1.76 6.42 6.42 0 0 0 0.24 1.82 4.24 4.24 0 0 0 0.71 1.39 3.26 3.26 0 0 0 1.13 0.89 3.53 3.53 0 0 0 1.52 0.31 4.12 4.12 0 0 0 1.54-0.25 3.08 3.08 0 0 0 1.15-0.87 3.77 3.77 0 0 0 0.7-1.37 6.93 6.93 0 0 0 0.23-1.85 7.19 7.19 0 0 0-0.22-1.88 4 4 0 0 0-0.67-1.41 2.93 2.93 0 0 0-1.12-0.88 3.73 3.73 0 0 0-1.51-0.3z"/>
      <path class="cls-1" d="m54.51 49.64 2.49 7.87a10.79 10.79 0 0 1 0.31 1.16c0.07 0.33 0.13 0.62 0.17 0.87 0-0.23 0.08-0.52 0.15-0.88s0.19-0.79 0.34-1.31l2-7.71h3c-0.66 2.14-1.31 4.26-2 6.38s-1.3 4.24-1.94 6.38h-3.03l-2.47-7.69c-0.08-0.27-0.17-0.59-0.26-1a9.14 9.14 0 0 1-0.2-1.1c-0.08 0.39-0.16 0.78-0.25 1.17a7.26 7.26 0 0 1-0.26 1c-0.4 1.27-0.81 2.54-1.21 3.81s-0.82 2.53-1.22 3.81h-3.13l-3.77-12.76h3l2 7.76q0.19 0.7 0.3 1.23a8.54 8.54 0 0 1 0.16 0.92c0-0.21 0.07-0.48 0.14-0.83s0.19-0.77 0.34-1.26l2.54-7.82z"/>
      <path class="cls-1" d="m74.11 62.4h-8v-12.76h7.66v2.11h-4.77v3.15h4.42v2.1h-4.42v3.3h5.12z"/>
      <path class="cls-1" d="m88.24 62.4h-3.34l-2-3.44a6.85 6.85 0 0 0-0.48-0.74 2.27 2.27 0 0 0-0.45-0.47 1.27 1.27 0 0 0-0.47-0.25 1.93 1.93 0 0 0-0.55-0.07h-0.64v5h-2.83v-12.79h4.69a6.06 6.06 0 0 1 3.55 0.88 2.93 2.93 0 0 1 1.28 2.55 3.23 3.23 0 0 1-0.85 2.25 3.84 3.84 0 0 1-1 0.76 5.43 5.43 0 0 1-1.24 0.49 2.64 2.64 0 0 1 1 0.64 6.48 6.48 0 0 1 0.89 1.15zm-4.24-9.08a1.42 1.42 0 0 0-0.62-1.32 3.18 3.18 0 0 0-1.72-0.38h-1.32v3.79h1a4.12 4.12 0 0 0 1.09-0.13 2.71 2.71 0 0 0 0.84-0.39 1.83 1.83 0 0 0 0.54-0.66 1.89 1.89 0 0 0 0.19-0.91z"/>
      <path class="cls-1" d="m90.56 59.34a4.65 4.65 0 0 0 0.81 0.51 5.64 5.64 0 0 0 0.92 0.39 8.08 8.08 0 0 0 1 0.24 6.41 6.41 0 0 0 0.95 0.08 3.16 3.16 0 0 0 1.8-0.4 1.22 1.22 0 0 0 0.58-1.06 1.34 1.34 0 0 0-0.13-0.58 1.57 1.57 0 0 0-0.49-0.52 5.11 5.11 0 0 0-0.88-0.52c-0.38-0.18-0.85-0.4-1.43-0.65a6.47 6.47 0 0 1-2.41-1.65 3.4 3.4 0 0 1-0.77-2.18 3 3 0 0 1 0.39-1.55 3.3 3.3 0 0 1 1.1-1.13 5.28 5.28 0 0 1 1.6-0.67 8.28 8.28 0 0 1 2-0.22 13.51 13.51 0 0 1 1.81 0.11 5.93 5.93 0 0 1 1.34 0.36v2.42a5 5 0 0 0-1.46-0.62 6.55 6.55 0 0 0-1.65-0.21 3.43 3.43 0 0 0-1.72 0.37 1.13 1.13 0 0 0-0.62 1 1.19 1.19 0 0 0 0.11 0.51 1.43 1.43 0 0 0 0.39 0.46 5.08 5.08 0 0 0 0.79 0.48c0.34 0.17 0.78 0.37 1.31 0.6a11.58 11.58 0 0 1 1.54 0.78 5.1 5.1 0 0 1 1.08 0.88 3.22 3.22 0 0 1 0.65 1.05 3.62 3.62 0 0 1 0.21 1.26 3.54 3.54 0 0 1-0.38 1.57 3.34 3.34 0 0 1-1 1.18 4.9 4.9 0 0 1-1.63 0.74 8.57 8.57 0 0 1-2.19 0.25 8.42 8.42 0 0 1-1 0 7.86 7.86 0 0 1-1-0.15c-0.32-0.06-0.62-0.14-0.91-0.22a4.11 4.11 0 0 1-0.72-0.3z"/>
      <path class="cls-1" d="m114.77 62.4h-2.86v-5.5h-5.76v5.5h-2.86v-12.76h2.86v5.08h5.76v-5.08h2.86z"/>
      <path class="cls-1" d="m127.17 62.4h-8v-12.76h7.65v2.11h-4.79v3.15h4.41v2.1h-4.41v3.3h5.11z"/>
      <path class="cls-1" d="m138.53 62.4h-8v-12.76h2.86v10.6h5.13z"/>
      <path class="cls-1" d="m149.43 62.4h-8v-12.76h2.86v10.6h5.13z"/>
      <path class="cls-1" d="m161.23 42.94v25.82h-158.95v-25.82h159m2.28-2.28h-163.56v30.34h163.51v-30.34z"/>
      <path class="cls-1" d="m53.86 14.07h-2v6.93h2c2.67 0 4-1.17 4-3.49s-1.33-3.44-4-3.44z"/>
      <path class="cls-1" d="m15.12 14.07h-2v6.93h2c2.67 0 4-1.17 4-3.49s-1.33-3.44-4-3.44z"/>
      <path class="cls-1" d="m0 0v42.64l70 0.11v-42.63zm22 22.7a9.54 9.54 0 0 1-6.44 2.06h-2.41v7.64h-5v-22.16h7.85q8.4 0 8.41 7.06a6.75 6.75 0 0 1-2.41 5.4zm20.54 9.7h-4.91v-8.8q0-3.68-2.64-3.67a2.62 2.62 0 0 0-2.09 1 3.68 3.68 0 0 0-0.82 2.47v9h-4.91v-15.83h4.91v2.51h0.06a5.62 5.62 0 0 1 5.1-2.89q5.28 0 5.28 6.52zm18.21-9.7a9.57 9.57 0 0 1-6.45 2.06h-2.41v7.64h-5v-22.16h7.85q8.42 0 8.41 7.06a6.77 6.77 0 0 1-2.42 5.4z"/>
      <path class="cls-1" d="m161.23 2.4v38.08h-91.23v-38.08h91.22m2.29-2.27h-95.78v42.63h95.78z"/>
      <path class="cls-1" d="m102.27 24.42v8h-5.27v-23.33h8.25q8.83 0 8.84 7.45a7.15 7.15 0 0 1-2.54 5.7 10.06 10.06 0 0 1-6.78 2.18zm0-11.29v7.29h2.07q4.22 0 4.21-3.68c0-2.4-1.4-3.61-4.21-3.61z"/>
      <path class="cls-1" d="m119.78 31.58v-5.22a10 10 0 0 0 3.09 1.78 9.75 9.75 0 0 0 3.35 0.6 7.39 7.39 0 0 0 1.74-0.18 4.06 4.06 0 0 0 1.24-0.5 2.12 2.12 0 0 0 0.74-0.75 1.8 1.8 0 0 0 0.25-0.93 2 2 0 0 0-0.39-1.23 4.11 4.11 0 0 0-1.07-1 10.39 10.39 0 0 0-1.61-0.88c-0.62-0.29-1.29-0.57-2-0.87a10.23 10.23 0 0 1-4.12-2.78 6 6 0 0 1-1.34-4 6.31 6.31 0 0 1 0.73-3.14 6.09 6.09 0 0 1 2-2.16 8.75 8.75 0 0 1 2.92-1.25 14.92 14.92 0 0 1 3.53-0.4 20.75 20.75 0 0 1 3.23 0.22 12.52 12.52 0 0 1 2.6 0.68v4.87a7.87 7.87 0 0 0-1.28-0.72 11.4 11.4 0 0 0-1.42-0.51 11 11 0 0 0-2.84-0.4 7.42 7.42 0 0 0-1.63 0.17 4.58 4.58 0 0 0-1.24 0.48 2.42 2.42 0 0 0-0.78 0.74 1.74 1.74 0 0 0-0.28 1 1.83 1.83 0 0 0 0.31 1.06 3.66 3.66 0 0 0 0.88 0.88 9.13 9.13 0 0 0 1.39 0.81c0.54 0.27 1.15 0.54 1.84 0.83a21.14 21.14 0 0 1 2.55 1.22 9.12 9.12 0 0 1 1.92 1.5 5.68 5.68 0 0 1 1.22 1.9 6.75 6.75 0 0 1 0.42 2.48 6.73 6.73 0 0 1-0.74 3.29 6.09 6.09 0 0 1-2 2.15 8.79 8.79 0 0 1-3 1.18 17.15 17.15 0 0 1-3.57 0.36 20.52 20.52 0 0 1-3.66-0.32 11.32 11.32 0 0 1-2.98-0.96z"/>
   </g>
</svg>
